<svg xmlns="http://www.w3.org/2000/svg" width="1080" height="1080" viewBox="0 0 1080 1080">
  <title>Holistic Capital</title>
  <desc>The two-tone HC mark on an ink tile, so the favicon reads on light and dark browser tabs.</desc>
  <rect width="1080" height="1080" rx="200" fill="#0e0e0e"/>
  <g transform="translate(540 540) scale(0.9) translate(-604.5 -540)" shape-rendering="geometricPrecision">
    <polygon points="623,182 712,150 712,452.5 623,452.5" fill="#8a8a8a"/>
    <polygon points="623,625.5 712,625.5 712,930 623,898" fill="#8a8a8a"/>
    <path d="M 834.485692 510 A 168.5 168.5 0 1 0 834.485692 568 L 749.993865 568 A 86.5 86.5 0 1 1 749.993865 510 Z" fill="#8a8a8a"/>
    <path d="M 498.000 508.000 L 587.006 508.000 L 586.505 509.450 L 586.032 510.900 L 585.587 512.350 L 585.169 513.800 L 584.779 515.250 L 584.416 516.700 L 584.079 518.150 L 583.768 519.600 L 583.483 521.050 L 583.224 522.500 L 582.990 523.950 L 582.781 525.400 L 582.598 526.850 L 582.439 528.300 L 582.304 529.750 L 582.195 531.200 L 582.109 532.650 L 582.049 534.100 L 582.012 535.550 L 582.000 537.000 L 582.012 538.450 L 582.049 539.900 L 582.109 541.350 L 582.195 542.800 L 582.304 544.250 L 582.439 545.700 L 582.598 547.150 L 582.781 548.600 L 582.990 550.050 L 583.224 551.500 L 583.483 552.950 L 583.768 554.400 L 584.079 555.850 L 584.416 557.300 L 584.779 558.750 L 585.169 560.200 L 585.587 561.650 L 586.032 563.100 L 586.505 564.550 L 587.006 566.000 L 498.000 566.000 Z" fill="#8a8a8a"/>
    <polygon points="372,273 461,240 461,450 372,450" fill="#FFFFFF"/>
    <polygon points="372,623 461,623 461,838 372,805" fill="#FFFFFF"/>
    <path d="M 587.006135 508 A 172.5 172.5 0 1 0 587.006135 566 L 498 566 A 86.5 86.5 0 1 1 498 508 Z" fill="#FFFFFF"/>
  </g>
</svg>
